<svg width="16" height="17" viewBox="0 0 16 17" fill="none" xmlns="http://www.w3.org/2000/svg">
<path d="M14.434 1.66614H9.99684V1.10491C9.99684 0.491073 9.50577 0 8.89193 0H6.66456C6.05072 0 5.55965 0.491073 5.55965 1.10491V1.66614H1.10491C0.491073 1.66614 0 2.15721 0 2.77105C0 3.38489 0.491073 3.87597 1.10491 3.87597H14.434C15.0479 3.87597 15.5389 3.38489 15.5389 2.77105C15.5389 2.15721 15.0479 1.66614 14.434 1.66614Z" fill="#9E9E9E"/>
<path fill-rule="evenodd" clip-rule="evenodd" d="M3.22712 16.6614C2.64835 16.6614 2.17482 16.2405 2.1222 15.6617L1.10498 4.99841H14.4341L13.4169 15.6617C13.3643 16.2229 12.8907 16.6614 12.312 16.6614H3.22712ZM10.8547 13.5371L10.0274 14.3644L7.5457 11.8826L5.0639 14.3644L4.23664 13.5372L6.71844 11.0554L4.23666 8.57358L5.06391 7.74632L7.5457 10.2281L10.0274 7.74637L10.8547 8.57363L8.37295 11.0554L10.8547 13.5371Z" fill="#9E9E9E"/>
</svg>
