<?xml version="1.0" encoding="utf-8"?>
<!-- Generator: Adobe Illustrator 18.0.0, SVG Export Plug-In . SVG Version: 6.00 Build 0)  -->
<!DOCTYPE svg PUBLIC "-//W3C//DTD SVG 1.1//EN" "http://www.w3.org/Graphics/SVG/1.1/DTD/svg11.dtd">
<svg version="1.1" id="Layer_1" xmlns="http://www.w3.org/2000/svg" xmlns:xlink="http://www.w3.org/1999/xlink" x="0px" y="0px"
	 viewBox="1.1 182 564.7 202.9" enable-background="new 1.1 182 564.7 202.9" xml:space="preserve">
<g id="background">
</g>
<g>
	<g>
		<g>
			<path fill="#FFE800" d="M183.1,360.9c-87.9-42.7-55.9-162.3,41.6-155.3c4.5,0.3,8.9,1.5,12.9,3.5
				c87.9,42.7,55.9,162.3-41.6,155.3C191.6,364,187.2,362.9,183.1,360.9z"/>
		</g>
		<g>
			<path fill="#62B22F" d="M114.3,207c87.9,42.7,55.9,162.3-41.6,155.3c-4.5-0.3-8.9-1.5-12.9-3.5c-87.9-42.7-55.9-162.3,41.6-155.3
				C105.9,203.8,110.3,205,114.3,207z"/>
		</g>
		<g>
			<path fill="#FF6026" d="M155.1,243.6c-1.7-2.9-3.6-5.7-5.6-8.3c-20.1,24.6-24.1,59.9-7.2,89c1.7,2.9,3.6,5.7,5.6,8.3
				C168,308,172,272.7,155.1,243.6z"/>
		</g>
		<g>
			<path fill="#FFFFFF" d="M118.7,345.9l-28.5-49.4c-3.2-5.5-10.3-7.7-15.8-4.5c-12,7.1-27.6,3-34.5-9.1l-28.7-49.7
				c5-0.9,10.2,1.3,12.9,5.9l13.3,23c2,3.5,5.4,6,9.4,6.8c3.9,0.8,8.1,0,11.4-2.4c5.9-4.2,7.5-12.7,3.7-19.2l-17.1-29.6
				c-1.1-2-0.5-4.5,1.5-5.6c2-1.1,4.5-0.5,5.6,1.5l17.4,30.1c2,3.5,5.4,6,9.4,6.8c3.9,0.8,8.1,0,11.4-2.4c5.9-4.2,7.5-12.7,3.7-19.2
				l-13-22.5c-2.7-4.6-2-10.3,1.3-14.1l28.7,49.7c7,12.1,2.7,27.6-9.4,34.4c-5.5,3.1-7.2,10.4-4,15.9l28.5,49.4
				c1.1,1.9,0.5,4.4-1.5,5.5c0,0-0.1,0-0.1,0.1C122.3,348.5,119.8,347.8,118.7,345.9z"/>
		</g>
		<g>
			<g>
				<path fill="#F0F0F0" d="M61.7,247.3c3.8,6.6,2.2,15-3.7,19.2c-1.9,1.4-4.1,2.2-6.3,2.5c3.6,0.5,7.4-0.3,10.4-2.5
					c5.9-4.2,7.5-12.7,3.7-19.2l-17.1-29.6c-1.1-1.9-0.5-4.4,1.4-5.5c-1.2-0.7-2.7-0.8-4,0c-2,1.1-2.6,3.6-1.5,5.6L61.7,247.3z"/>
			</g>
		</g>
		<g>
			<g>
				<path fill="#F0F0F0" d="M93.6,228.9c3.8,6.6,2.2,15-3.7,19.2c-1.9,1.4-4.1,2.2-6.3,2.5c3.6,0.5,7.4-0.3,10.4-2.5
					c5.9-4.2,7.5-12.7,3.7-19.2l-13-22.5c-1.9-3.4-2.1-7.2-0.8-10.6l-2-3.5c-3.3,3.8-4,9.5-1.3,14.1L93.6,228.9z"/>
			</g>
		</g>
		<g>
			<g>
				<path fill="#F0F0F0" d="M122.8,345.9l-28.5-49.4c-2.5-4.4-7.6-6.6-12.3-5.8c3.3,0.6,6.4,2.6,8.2,5.8l28.5,49.4
					c1.1,1.9,3.6,2.6,5.5,1.5c0,0,0.1,0,0.1-0.1c0,0,0,0,0,0C123.7,347,123.1,346.6,122.8,345.9z"/>
			</g>
		</g>
		<g>
			<g>
				<path fill="#F0F0F0" d="M43.9,282.9l-28.7-49.7c0,0,0.1,0,0.1,0c-1.4-0.2-2.8-0.2-4.2,0l28.7,49.7c5,8.7,14.4,13.2,23.8,12.4
					C55.7,294.7,48.2,290.3,43.9,282.9z"/>
			</g>
		</g>
		<g>
			<path fill="#5B5973" d="M110.8,203.6c-2.2-0.6-4.4,0.6-5.1,2.7c-0.6,2.2,0.6,4.4,2.7,5.1c18.3,5.5,33.6,17.6,43.2,34.2
				c17.6,30.4,11.1,68.2-13.4,91.4c-1.9,1.8-5,1.4-6.3-0.9l-27.7-47.9c-0.9-1.6-0.4-3.8,1.2-4.7c15.9-9.2,21.4-29.6,12.2-45.5
				l-31.1-53.9c-1.1-1.9-3.5-2.7-5.4-1.6c-9.9,5.6-13.3,18.2-7.6,28l13,22.5c1.7,3,1.1,6.7-1.4,8.5c-1.5,1-3.2,1.4-4.9,1
				c-1.7-0.4-3.1-1.4-4-2.9L59.1,210c-3-5.1-9.1-7.9-14.8-5.9c-7.5,2.6-10.5,11.2-6.7,17.8l17.1,29.6c1.7,3,1.1,6.7-1.4,8.5
				c-1.4,1-3.2,1.4-4.9,1c-1.7-0.4-3.1-1.4-4-2.9l-13.3-23c-5.7-9.8-18.3-13.1-28.1-7.4c-1.9,1.1-2.4,3.6-1.3,5.5L32.8,287
				c9.2,15.9,29.6,21.4,45.5,12.1c1.6-1,3.8-0.3,4.7,1.3l27.7,47.9c1.3,2.3,0.1,5.2-2.4,5.9c-32.3,9.6-68.2-3.7-85.8-34.1
				c-9.6-16.6-12.4-35.9-8-54.5c0.5-2.2-0.8-4.4-3-4.9c-2.2-0.5-4.4,0.8-4.9,3c-5.9,25-0.1,51.2,16.6,71.7
				c23.6,28.9,64.6,38.3,98.5,22.6c44.7-20.7,61.1-74.9,37.1-116.5C148.1,223.2,131.1,209.7,110.8,203.6z M118.7,345.9l-28.5-49.4
				c-3.2-5.5-10.3-7.7-15.8-4.5c-12,7.1-27.6,3-34.5-9.1l-28.7-49.7c5-0.9,10.2,1.3,12.9,5.9l13.3,23c2,3.5,5.4,6,9.4,6.8
				c3.9,0.8,8.1,0,11.4-2.4c5.9-4.2,7.5-12.7,3.7-19.2l-17.1-29.6c-1.1-2-0.5-4.5,1.5-5.6c2-1.1,4.5-0.5,5.6,1.5l17.4,30.1
				c2,3.5,5.4,6,9.4,6.8c3.9,0.8,8.1,0,11.4-2.4c5.9-4.2,7.5-12.7,3.7-19.2l-13-22.5c-2.7-4.6-2-10.3,1.3-14.1l28.7,49.7
				c7,12.1,2.7,27.6-9.4,34.4c-5.5,3.1-7.2,10.4-4,15.9l28.5,49.4c1.1,1.9,0.5,4.4-1.5,5.5c0,0-0.1,0-0.1,0.1
				C122.3,348.5,119.8,347.8,118.7,345.9z"/>
		</g>
		<g>
			<path fill="#5B5973" d="M191.5,365.5c2.2,0.5,4.4-0.8,4.9-3c0.5-2.2-0.8-4.4-3-4.9c-20.2-4.8-37.1-17.3-47.5-35.3
				c-17.6-30.4-11.1-68.2,13.4-91.4c1.9-1.8,5-1.4,6.3,0.9l27.7,47.9c0.8,1.3,0.6,2.9-0.4,4.1c-0.1,0.1-0.2,0.2-0.2,0.3
				c-14.4,15.8-16.9,38.9-6.1,57.5c13.2,22.9,47.2,38.8,71.1,25c23.9-13.8,27.1-51.1,13.9-74.1c-10.8-18.6-32-28-53-23.4
				c-0.1,0-0.2,0-0.3,0c-1.4,0.3-2.9-0.4-3.7-1.7l-27.7-47.9c-1.3-2.3-0.1-5.2,2.4-5.9c32.3-9.6,68.2,3.7,85.8,34.1
				c10.4,18,12.8,38.9,6.8,58.8c-0.7,2.2,0.6,4.4,2.7,5.1c2.2,0.7,4.4-0.6,5.1-2.7c6.6-21.8,3.8-45.6-7.6-65.3
				c-22.8-39.5-73.5-53.1-113-30.3c-39.5,22.8-53.1,73.5-30.3,113C150.1,346,169.3,360.3,191.5,365.5z M178.8,222l28.6,49.5
				c2.3,4,6.8,5.8,11.5,5.8c0.3,0,0.6,0,0.9-0.1c17.6-4,35.5,3.8,44.5,19.4c11.1,19.2,8.7,51.6-10.9,62.9
				c-19.6,11.3-48.8-2.8-59.9-22c-9-15.6-6.9-34.9,5.3-48.1c0.1-0.1,0.3-0.3,0.4-0.4c3.1-3.7,3.5-9,1.1-13.2l-28.6-49.5
				c-1.1-1.9-0.5-4.4,1.5-5.5c0,0,0.1,0,0.1-0.1C175.2,219.4,177.6,220,178.8,222z"/>
		</g>
		<g>
			<path fill="#FFFFFF" d="M178.8,222l28.6,49.5c2.3,4,6.8,5.8,11.5,5.8c0.3,0,0.6,0,0.9-0.1c17.6-4,35.5,3.8,44.5,19.4
				c11.1,19.2,8.7,51.6-10.9,62.9c-19.6,11.3-48.8-2.8-59.9-22c-9-15.6-6.9-34.9,5.3-48.1c0.1-0.1,0.3-0.3,0.4-0.4
				c3.1-3.7,3.5-9,1.1-13.2l-28.6-49.5c-1.1-1.9-0.5-4.4,1.5-5.5c0,0,0.1,0,0.1-0.1C175.2,219.4,177.6,220,178.8,222z"/>
		</g>
		<g>
			<path fill="#F0F0F0" d="M264.3,296.5c-5.5-9.5-14.2-16.1-24.2-18.9c8.2,5.1,14.9,12.6,18.9,22.1c7.9,18.9,4.8,45.9-9,61.4
				c1.2-0.5,2.3-1,3.4-1.7C273,348.1,275.4,315.8,264.3,296.5z"/>
		</g>
		<g>
			<path fill="#F0F0F0" d="M201.8,282.5c1.7-3.4,1.7-7.6-0.3-11L172.9,222c-0.2-0.3-0.2-0.6-0.3-0.9c-1.4,1.2-1.9,3.3-0.9,5
				l28.6,49.5C201.5,277.7,202,280.1,201.8,282.5z"/>
		</g>
	</g>
	<g>
		<path fill="#62B22F" d="M338.6,258.7h-15.3V200h24.3c6.6,0,11.6,1.7,15.1,5.1c3.5,3.4,5.3,8.2,5.3,14.5c0,6.2-1.8,11.1-5.3,14.5
			c-3.5,3.4-8.5,5.1-15.1,5.1h-9V258.7z M338.6,227h5.1c5.6,0,8.4-2.4,8.4-7.3c0-4.9-2.8-7.3-8.4-7.3h-5.1V227z"/>
	</g>
	<g>
		<path fill="#62B22F" d="M388.9,218.8v22.5c0,4.9,2.4,7.4,7.2,7.4c4.8,0,7.2-2.5,7.2-7.4v-22.5h14.1V244c0,5.4-1.8,9.4-5.3,12.1
			c-3.6,2.7-8.9,4-15.9,4c-7.1,0-12.4-1.3-15.9-4c-3.6-2.7-5.3-6.7-5.3-12.1v-25.2H388.9z"/>
	</g>
	<g>
		<path fill="#62B22F" d="M426.8,218.8h14.1v6.5c1.5-2.4,3.3-4.2,5.5-5.5c2.2-1.3,4.7-1.9,7.6-1.9c0.4,0,0.8,0,1.2,0
			c0.4,0,0.9,0,1.5,0.2v13.5c-1.9-0.9-3.9-1.4-6.1-1.4c-3.3,0-5.7,1-7.4,2.9c-1.6,1.9-2.5,4.8-2.5,8.5v17.1h-14.1V218.8z"/>
	</g>
	<g>
		<path fill="#62B22F" d="M461.9,238.4c0-3,0.6-5.7,1.8-8.3c1.2-2.6,2.9-4.8,5-6.7c2.1-1.9,4.7-3.4,7.6-4.5c2.9-1.1,6.1-1.6,9.6-1.6
			c3.4,0,6.6,0.5,9.5,1.6c2.9,1.1,5.5,2.5,7.6,4.4c2.2,1.9,3.8,4.2,5,6.8c1.2,2.6,1.8,5.5,1.8,8.7c0,3.2-0.6,6.1-1.8,8.7
			c-1.2,2.6-2.9,4.9-5,6.8c-2.1,1.9-4.7,3.4-7.7,4.4c-3,1-6.2,1.6-9.7,1.6c-3.4,0-6.6-0.5-9.5-1.6c-2.9-1-5.4-2.5-7.5-4.4
			c-2.1-1.9-3.7-4.2-4.9-6.9C462.5,244.6,461.9,241.7,461.9,238.4z M476.7,238.6c0,1.3,0.2,2.6,0.7,3.7c0.5,1.1,1.1,2.1,1.9,2.9
			c0.8,0.8,1.8,1.5,2.9,1.9c1.1,0.5,2.3,0.7,3.5,0.7c1.2,0,2.4-0.2,3.5-0.7c1.1-0.5,2.1-1.1,2.9-1.9c0.8-0.8,1.5-1.8,1.9-2.9
			c0.5-1.1,0.7-2.3,0.7-3.6c0-1.2-0.2-2.4-0.7-3.5c-0.5-1.1-1.1-2.1-1.9-2.9c-0.8-0.8-1.8-1.5-2.9-1.9c-1.1-0.5-2.3-0.7-3.5-0.7
			c-1.2,0-2.4,0.2-3.5,0.7c-1.1,0.5-2.1,1.1-2.9,1.9c-0.8,0.8-1.5,1.8-1.9,2.9C477,236.1,476.7,237.3,476.7,238.6z"/>
	</g>
	<g>
		<path fill="#FF6026" d="M355.6,295.3c-1.7-1.3-3.3-2.3-5-3c-1.7-0.7-3.3-1-4.8-1c-2,0-3.6,0.5-4.8,1.4c-1.2,0.9-1.9,2.2-1.9,3.7
			c0,1,0.3,1.9,0.9,2.6c0.6,0.7,1.4,1.3,2.5,1.8c1,0.5,2.2,0.9,3.4,1.3c1.3,0.4,2.5,0.8,3.8,1.2c5,1.7,8.6,3.9,10.9,6.7
			c2.3,2.8,3.5,6.4,3.5,10.9c0,3-0.5,5.7-1.5,8.2c-1,2.4-2.5,4.5-4.4,6.3c-1.9,1.7-4.3,3.1-7.2,4c-2.8,1-6,1.4-9.6,1.4
			c-7.4,0-14.3-2.2-20.6-6.6l6.5-12.3c2.3,2,4.5,3.5,6.8,4.5c2.2,1,4.4,1.5,6.6,1.5c2.5,0,4.3-0.6,5.6-1.7c1.2-1.1,1.8-2.4,1.8-3.9
			c0-0.9-0.2-1.6-0.5-2.3c-0.3-0.6-0.8-1.2-1.6-1.8c-0.7-0.5-1.7-1-2.8-1.5c-1.2-0.5-2.6-1-4.2-1.6c-2-0.6-3.9-1.3-5.8-2.1
			c-1.9-0.8-3.6-1.8-5.1-3c-1.5-1.2-2.7-2.8-3.6-4.7c-0.9-1.9-1.4-4.3-1.4-7.2c0-2.9,0.5-5.5,1.4-7.9c1-2.4,2.3-4.4,4-6.1
			c1.7-1.7,3.9-3,6.4-3.9c2.5-0.9,5.3-1.4,8.4-1.4c2.9,0,5.9,0.4,9.1,1.2c3.2,0.8,6.2,2,9.1,3.5L355.6,295.3z"/>
	</g>
	<g>
		<path fill="#FF6026" d="M403.1,299h14.2v39.9h-14.2v-4.4c-3,3.8-7.1,5.7-12.2,5.7c-2.9,0-5.6-0.5-8-1.6c-2.4-1.1-4.6-2.6-6.4-4.5
			c-1.8-1.9-3.2-4.2-4.2-6.8c-1-2.6-1.5-5.4-1.5-8.5c0-2.9,0.5-5.6,1.5-8.1c1-2.6,2.4-4.8,4.1-6.7c1.8-1.9,3.9-3.4,6.3-4.6
			c2.4-1.1,5.1-1.7,8.1-1.7c5,0,9.1,1.7,12.4,5.2L403.1,299L403.1,299z M385.4,318.9c0,1.3,0.2,2.5,0.7,3.6c0.5,1.1,1.1,2.1,1.9,2.9
			c0.8,0.8,1.8,1.5,2.9,1.9c1.1,0.5,2.3,0.7,3.6,0.7c1.2,0,2.4-0.2,3.5-0.7c1.1-0.5,2.1-1.1,2.9-1.9c0.8-0.8,1.5-1.8,1.9-2.9
			c0.5-1.1,0.7-2.3,0.7-3.5c0-1.2-0.2-2.4-0.7-3.5c-0.5-1.1-1.1-2.1-1.9-2.9c-0.8-0.8-1.8-1.5-2.9-1.9c-1.1-0.5-2.3-0.7-3.5-0.7
			c-1.3,0-2.5,0.2-3.6,0.7c-1.1,0.5-2.1,1.1-2.9,1.9c-0.8,0.8-1.4,1.8-1.9,2.8C385.6,316.5,385.4,317.6,385.4,318.9z"/>
	</g>
	<g>
		<path fill="#FF6026" d="M440.9,274.3V303c3.3-3.5,7.5-5.2,12.5-5.2c3,0,5.7,0.6,8.1,1.7c2.5,1.1,4.6,2.6,6.3,4.5
			c1.7,1.9,3.1,4.1,4.1,6.7c1,2.6,1.5,5.3,1.5,8.2c0,3-0.5,5.7-1.5,8.3c-1,2.6-2.4,4.8-4.2,6.8c-1.8,1.9-4,3.4-6.4,4.6
			c-2.5,1.1-5.1,1.7-8,1.7c-5.2,0-9.3-1.9-12.3-5.7v4.4h-14.1v-64.6H440.9z M458.7,319.1c0-1.2-0.2-2.4-0.7-3.5
			c-0.5-1.1-1.1-2.1-1.9-2.9c-0.8-0.8-1.8-1.5-2.9-2c-1.1-0.5-2.3-0.7-3.6-0.7c-1.2,0-2.4,0.2-3.5,0.7c-1.1,0.5-2,1.1-2.8,1.9
			c-0.8,0.8-1.5,1.8-1.9,2.9c-0.5,1.1-0.7,2.3-0.7,3.5c0,1.2,0.2,2.4,0.7,3.5c0.5,1.1,1.1,2,1.9,2.8c0.8,0.8,1.8,1.5,2.9,1.9
			c1.1,0.5,2.3,0.7,3.5,0.7s2.4-0.2,3.5-0.7s2-1.1,2.8-1.9c0.8-0.8,1.5-1.8,1.9-2.9C458.4,321.4,458.7,320.3,458.7,319.1z"/>
	</g>
	<g>
		<path fill="#FF6026" d="M479.8,318.6c0-3,0.6-5.7,1.8-8.3c1.2-2.6,2.9-4.8,5-6.7c2.1-1.9,4.7-3.4,7.6-4.5c2.9-1.1,6.1-1.6,9.6-1.6
			c3.4,0,6.6,0.5,9.5,1.6c2.9,1.1,5.5,2.5,7.6,4.4c2.2,1.9,3.8,4.2,5,6.8c1.2,2.6,1.8,5.5,1.8,8.7c0,3.2-0.6,6.1-1.8,8.7
			c-1.2,2.6-2.9,4.9-5,6.8c-2.1,1.9-4.7,3.4-7.7,4.4c-3,1-6.2,1.6-9.7,1.6c-3.4,0-6.6-0.5-9.5-1.6c-2.9-1-5.4-2.5-7.5-4.4
			c-2.1-1.9-3.7-4.2-4.9-6.9C480.4,324.9,479.8,321.9,479.8,318.6z M494.7,318.8c0,1.4,0.2,2.6,0.7,3.7c0.5,1.1,1.1,2.1,1.9,2.9
			c0.8,0.8,1.8,1.5,2.9,1.9c1.1,0.5,2.3,0.7,3.5,0.7s2.4-0.2,3.5-0.7c1.1-0.5,2.1-1.1,2.9-1.9c0.8-0.8,1.5-1.8,1.9-2.9
			c0.5-1.1,0.7-2.3,0.7-3.6c0-1.2-0.2-2.4-0.7-3.5c-0.5-1.1-1.1-2.1-1.9-2.9c-0.8-0.8-1.8-1.5-2.9-1.9c-1.1-0.5-2.3-0.7-3.5-0.7
			s-2.4,0.2-3.5,0.7c-1.1,0.5-2.1,1.1-2.9,1.9c-0.8,0.8-1.5,1.8-1.9,2.9C494.9,316.4,494.7,317.5,494.7,318.8z"/>
	</g>
	<g>
		<path fill="#FF6026" d="M535.9,299h14.1v6.5c1.5-2.4,3.3-4.2,5.5-5.5c2.2-1.3,4.7-1.9,7.6-1.9c0.4,0,0.8,0,1.2,0
			c0.4,0,0.9,0.1,1.5,0.2v13.5c-1.9-0.9-3.9-1.4-6.1-1.4c-3.3,0-5.7,1-7.4,2.9c-1.6,1.9-2.5,4.8-2.5,8.5v17.1h-14.1L535.9,299
			L535.9,299z"/>
	</g>
	<g>
		<path fill="#5B5973" d="M329.7,376.7l5.2,7.2h-3.1L327,377h-0.5v6.9H324v-17h3c2.2,0,3.9,0.4,4.9,1.3c1.1,0.9,1.6,2.2,1.6,3.7
			c0,1.2-0.3,2.2-1,3.1C331.8,375.9,330.9,376.4,329.7,376.7z M326.6,374.7h0.8c2.4,0,3.6-0.9,3.6-2.8c0-1.7-1.2-2.6-3.5-2.6h-0.9
			L326.6,374.7L326.6,374.7z"/>
		<path fill="#5B5973" d="M355.9,369.3h-6.8v4.1h6.6v2.4h-6.6v5.7h6.8v2.4h-9.4v-17h9.4V369.3z"/>
		<path fill="#5B5973" d="M377.8,369.5l-2.1,1.2c-0.4-0.7-0.8-1.1-1.1-1.3c-0.4-0.2-0.8-0.4-1.4-0.4c-0.7,0-1.3,0.2-1.8,0.6
			c-0.5,0.4-0.7,0.9-0.7,1.5c0,0.8,0.6,1.5,1.8,2l1.7,0.7c1.4,0.6,2.4,1.2,3,2c0.6,0.8,1,1.8,1,2.9c0,1.6-0.5,2.8-1.6,3.9
			c-1,1-2.3,1.5-3.9,1.5c-1.5,0-2.7-0.4-3.6-1.3c-0.9-0.9-1.5-2.1-1.8-3.7l2.6-0.6c0.1,1,0.3,1.7,0.6,2.1c0.5,0.7,1.3,1.1,2.3,1.1
			c0.8,0,1.5-0.3,2-0.8c0.5-0.5,0.8-1.2,0.8-2c0-0.3,0-0.6-0.1-0.9c-0.1-0.3-0.2-0.5-0.4-0.8c-0.2-0.2-0.4-0.4-0.8-0.6
			c-0.3-0.2-0.7-0.4-1.1-0.6l-1.6-0.7c-2.3-1-3.5-2.4-3.5-4.3c0-1.3,0.5-2.3,1.5-3.2c1-0.9,2.2-1.3,3.6-1.3
			C375.2,366.6,376.7,367.6,377.8,369.5z"/>
		<path fill="#5B5973" d="M395.3,369.3v14.5h-2.6v-14.5h-3.9v-2.4h10.3v2.4H395.3z"/>
		<path fill="#5B5973" d="M419.5,379.8h-7.3l-1.9,4.1h-2.8l8.4-18l8.1,18h-2.8L419.5,379.8z M418.5,377.4l-2.5-5.8l-2.6,5.8H418.5z"
			/>
		<path fill="#5B5973" d="M437.1,366.9v10.2c0,1.5,0.2,2.5,0.7,3.2c0.7,1,1.7,1.5,3,1.5c1.3,0,2.3-0.5,3-1.5
			c0.5-0.7,0.7-1.7,0.7-3.2v-10.2h2.6v10.9c0,1.8-0.6,3.3-1.7,4.4c-1.3,1.3-2.8,1.9-4.6,1.9c-1.8,0-3.4-0.6-4.6-1.9
			c-1.1-1.2-1.7-2.6-1.7-4.4v-10.9H437.1z"/>
		<path fill="#5B5973" d="M465.9,376.7l5.2,7.2h-3.1l-4.8-6.9h-0.5v6.9h-2.6v-17h3c2.2,0,3.9,0.4,4.9,1.3c1.1,0.9,1.6,2.2,1.6,3.7
			c0,1.2-0.3,2.2-1,3.1C468,375.9,467.1,376.4,465.9,376.7z M462.8,374.7h0.8c2.4,0,3.6-0.9,3.6-2.8c0-1.7-1.2-2.6-3.5-2.6h-0.9
			L462.8,374.7L462.8,374.7z"/>
		<path fill="#5B5973" d="M492.7,379.8h-7.3l-1.9,4.1h-2.8l8.4-18l8.1,18h-2.8L492.7,379.8z M491.6,377.4l-2.5-5.8l-2.6,5.8H491.6z"
			/>
		<path fill="#5B5973" d="M508.4,383.9v-18.1l12.4,12.9v-11.8h2.6v18L510.9,372v11.9L508.4,383.9L508.4,383.9z"/>
		<path fill="#5B5973" d="M541,369.3v14.5h-2.6v-14.5h-3.9v-2.4h10.3v2.4H541z"/>
		<path fill="#5B5973" d="M565.6,369.3h-6.8v4.1h6.6v2.4h-6.6v5.7h6.8v2.4h-9.4v-17h9.4L565.6,369.3L565.6,369.3z"/>
	</g>
</g>
</svg>
